<svg xmlns="http://www.w3.org/2000/svg" width="430" height="430" style="width:100%;height:100%;transform:translate3d(0,0,0);content-visibility:visible" viewBox="0 0 430 430"><defs><clipPath id="e"><path d="M0 0h430v430H0z"/></clipPath><clipPath id="i"><path d="M0 0h430v430H0z"/></clipPath><clipPath id="g"><path d="M0 0h430v430H0z"/></clipPath><clipPath id="f"><path d="M0 0h430v430H0z"/></clipPath><filter id="a" width="100%" height="100%" x="0%" y="0%" filterUnits="objectBoundingBox"><feComponentTransfer in="SourceGraphic"><feFuncA tableValues="1.0 0.0" type="table"/></feComponentTransfer></filter><filter id="c" width="100%" height="100%" x="0%" y="0%" filterUnits="objectBoundingBox"><feComponentTransfer in="SourceGraphic"><feFuncA tableValues="1.0 0.0" type="table"/></feComponentTransfer></filter><path id="d" fill="red" d="M2.704-41.892h-5.408c-7.383 0-13.467-5.794-13.827-13.169l-2.827-57.89c-.457-9.358 7.008-17.196 16.377-17.196h5.962c9.369 0 16.834 7.838 16.377 17.196l-2.827 57.89c-.36 7.375-6.444 13.169-13.827 13.169M-15.853 0c0-8.755 7.098-15.853 15.853-15.853S15.853-8.755 15.853 0 8.755 15.853 0 15.853-15.853 8.755-15.853 0" style="display:block" transform="translate(215 300.48)"/><path id="b" style="display:none"/><mask id="j" mask-type="alpha" maskUnits="userSpaceOnUse"><g filter="url(#a)"><path fill="#fff" d="M0 0h430v430H0z" opacity="0"/><use xmlns:ns1="http://www.w3.org/1999/xlink" ns1:href="#b"/></g></mask><mask id="h" mask-type="alpha" maskUnits="userSpaceOnUse"><g filter="url(#c)"><path fill="#fff" d="M0 0h430v430H0z" opacity="0"/><use xmlns:ns2="http://www.w3.org/1999/xlink" ns2:href="#d"/></g></mask></defs><g clip-path="url(#e)"><g fill="none" clip-path="url(#f)" style="display:none"><path class="primary" style="display:none"/><path class="secondary" style="display:none"/></g><g clip-path="url(#g)" style="display:block"><g mask="url(#h)" style="display:block"><path fill="none" stroke="#121330" stroke-linecap="round" stroke-linejoin="round" stroke-width="12" d="m226.287 88.084 139.026 240.799c5.016 8.689-1.254 19.55-11.287 19.55H75.974c-10.033 0-16.303-10.861-11.287-19.55L203.713 88.084c5.016-8.689 17.558-8.689 22.574 0" class="primary"/></g><path fill="none" stroke="#07A889" stroke-linecap="round" stroke-linejoin="round" stroke-width="12" d="M2.704-41.892h-5.408c-7.383 0-13.467-5.794-13.827-13.169l-2.827-57.89c-.457-9.358 7.008-17.196 16.377-17.196h5.962c9.369 0 16.834 7.838 16.377 17.196l-2.827 57.89c-.36 7.375-6.444 13.169-13.827 13.169M-15.853 0c0-8.755 7.098-15.853 15.853-15.853S15.853-8.755 15.853 0 8.755 15.853 0 15.853-15.853 8.755-15.853 0" class="secondary" style="display:block" transform="translate(215 300.48)"/></g><g clip-path="url(#i)" style="display:none"><g mask="url(#j)" style="display:none"><path fill="none" class="primary"/></g><path fill="none" class="secondary" style="display:none"/></g></g></svg>